<svg fill="none" height="57" viewBox="0 0 57 57" width="57" xmlns="http://www.w3.org/2000/svg"><g clip-rule="evenodd" fill-rule="evenodd"><path d="m28.35.220001c7.5189 0 14.7298 2.986859 20.0465 8.303509 5.3166 5.31669 8.3035 12.52759 8.3035 20.04649 0 3.7225-.7334 7.4085-2.1582 10.8476-1.4249 3.439-3.5133 6.5636-6.1459 9.1953-2.6327 2.6318-5.7581 4.7191-9.1976 6.1427s-7.1258 2.1557-10.8483 2.1544c-3.7225.0013-7.4088-.7308-10.8483-2.1544s-6.5649-3.5109-9.19759-6.1427c-2.63267-2.6317-4.72106-5.7563-6.14591-9.1953-1.42484-3.4391-2.15820023-7.1251-2.1582-10.8476 0-7.5189 2.98687-14.7298 8.30353-20.04649 5.31667-5.31665 12.52757-8.303509 20.04647-8.303509z" fill="#0097b0"/><path d="m27.8099 56.91-14.45-14.46c-.1244-.1326-.2184-.2908-.2754-.4635-.057-.1728-.0756-.3558-.0546-.5365l2.86-6.51-7.31998-8.05c-.10511-.1444-.18031-.3083-.22116-.4821-.04085-.1739-.04654-.3542-.01673-.5302.02982-.1761.09454-.3445.19034-.4952.09581-.1507.22075-.2808.36753-.3825.52-.32 6.1-2.42 6.79-1.93l1.2 1.21c.3418-.8109.771-1.5821 1.28-2.3.3536-.4963.7412-.9674 1.16-1.41l-1.26-1.24c-.65-.94-.72-6.29-.58-6.89.0459-.1734.1264-.3358.2367-.4773.1102-.1415.248-.2592.4049-.3461.157-.0869.3299-.1411.5083-.1594.1785-.0183.3588-.0004.5301.0528 1.8386.9465 3.5774 2.0755 5.19 3.37l2.12 2.09c1.6311-.2061 3.287-.0837 4.87.36l-1.87-1.87c-1-.41 4.29-4.75 4.93-5.05.231-.1012.4858-.1352.7352-.098.2495.0371.4834.1439.6748.308l20.75 20.69c-.6902 7.0022-3.9605 13.4972-9.1746 18.2216-5.2142 4.7243-11.9993 7.3401-19.0354 7.3384z" fill="#00879a"/><path d="m15.7499 23.29c-1.1627 2.2485-1.5661 4.8131-1.15 7.31-.16 1.08-5.58995-3.11-5.99995-3.67-.10511-.1444-.18031-.3083-.22116-.4822-.04085-.1738-.04654-.3541-.01673-.5302.02982-.176.09454-.3444.19034-.4951s.22075-.2808.36753-.3825c.56-.35 7.05997-2.78 6.85997-1.75zm.19 11.74c1.033 2.3125 2.7872 4.2281 5 5.46.74.8-5.92 2.43-6.63 2.42-.1824-.0045-.3618-.0467-.5271-.1241-.1652-.0773-.3126-.1881-.4329-.3253s-.2108-.2978-.2659-.4718c-.0551-.1739-.0735-.3574-.0541-.5388.08-.66 2.23-7.25 2.91-6.46zm9.3 7.18c2.4502.6348 5.0404.4558 7.38-.51 1.09-.07-1.8 6.15-2.24 6.7-.1164.1353-.2589.2458-.419.3249s-.3344.1251-.5126.1354c-.1783.0103-.3568-.0155-.5248-.0756-.1681-.0602-.3223-.1536-.4536-.2747-.47-.47-4.28-6.26-3.23-6.3zm-.43-26.39c-2.4848.493-4.7418 1.7812-6.43 3.67-.94.53-1.06-6.32-.89-7 .0448-.173.1242-.3352.2335-.4766.1093-.1415.2461-.2592.4023-.3462.1561-.0869.3283-.1413.5061-.1597s.3575-.0006.5281.0525c.62.21 6.57 3.78 5.65 4.27z" fill="#fefefe"/><path d="m28.0301 41.1c-2.5074.0057-4.9542-.7703-7-2.22-1.2991-.9139-2.4038-2.0766-3.25-3.4207-.8463-1.3441-1.4173-2.8428-1.68-4.4093-.2764-1.5579-.2421-3.1551.1012-4.6997.3432-1.5446.9886-3.0061 1.8988-4.3003.913-1.3009 2.0753-2.4075 3.4194-3.2555s2.8434-1.4206 4.4106-1.6845c3.1528-.5239 6.3851.2124 9 2.05 1.3009.913 2.4075 2.0753 3.2555 3.4194.848 1.3442 1.4206 2.8434 1.6845 4.4106.2764 1.5579.242 3.1552-.1012 4.6997-.3432 1.5446-.9886 3.0061-1.8988 4.3003-.9118 1.2998-2.0726 2.4058-3.4149 3.2537-1.3424.848-2.8397 1.4212-4.4051 1.6863-.681.1116-1.3699.1685-2.06.17z" fill="#fefefe"/><g fill="#fff"><path d="m28.48 16.92c2.3483.086 4.6208.8539 6.54 2.21 1.3009.913 2.4075 2.0753 3.2555 3.4194.848 1.3442 1.4206 2.8434 1.6845 4.4106.2764 1.5579.242 3.1552-.1012 4.6997-.3432 1.5446-.9886 3.0061-1.8988 4.3003-.9118 1.2998-2.0726 2.4058-3.4149 3.2537-1.3424.848-2.8397 1.4212-4.4051 1.6863-.5326.0884-1.0704.1419-1.61.16v-24.17z"/><path d="m41.58 28.77c.0754-2.5346-.6719-5.0254-2.13-7.1-.31-1 6.4.4 7 .71.158.0836.2975.1982.4102.3369s.1963.2988.2457.4705c.0495.1718.0638.3517.0422.5291-.0216.1775-.0788.3487-.1681.5035-.35.56-5.16 5.56-5.43 4.55zm-4.93 10.68c2.0229-1.5233 3.4996-3.6594 4.21-6.09.61-.89 3.68 5.24 3.83 5.94.0343.1758.0325.3567-.0053.5318s-.1109.3407-.2147.4866-.2363.2692-.3893.3623-.3234.1542-.5007.1793c-.65.07-7.56-.57-6.93-1.41zm-8.17 3.16c1.4225-.0346 2.8263-.333 4.14-.88 1.09-.07-1.8 6.15-2.24 6.7-.1157.1341-.2569.2439-.4153.323-.1584.0792-.3309.1262-.5076.1383s-.354-.011-.5217-.0678c-.1677-.0569-.3225-.1464-.4554-.2635v-6zm7.86-24.32c-1.9309-1.6394-4.3416-2.6079-6.87-2.76-1-.41 4.29-4.75 4.93-5.05.1644-.0718.3416-.1098.5211-.1118.1794-.002.3573.0321.5234.1001.166.0681.3166.1689.443.2963.1263.1274.2258.2788.2925.4454.21.63 1.11 7.5.16 7.08z"/></g></g></svg>