<svg fill="none" height="57" viewBox="0 0 57 57" width="57" xmlns="http://www.w3.org/2000/svg"><g clip-rule="evenodd" fill-rule="evenodd"><path d="m28.35.220001c3.7225 0 7.4085.73336 10.8476 2.158199 3.439 1.42485 6.5636 3.51327 9.1953 6.14594 2.6318 2.63266 4.7191 5.75806 6.1427 9.19756s2.1557 7.1258 2.1544 10.8483c0 3.7217-.733 7.4069-2.1573 10.8453-1.4242 3.4383-3.5117 6.5625-6.1433 9.1941s-5.7558 4.7191-9.1942 6.1433c-3.4383 1.4243-7.1235 2.1573-10.8452 2.1573-3.7233.0013-7.4105-.7311-10.8506-2.1553-3.4402-1.4243-6.566-3.5125-9.19881-6.1453-2.6328-2.6328-4.72099-5.7586-6.14525-9.1988-1.424255-3.4401-2.15665228-7.1273-2.15533823-10.8506.00265155-7.5172 2.99068823-14.7255 8.30705823-20.04001 5.31634-5.31449 12.52574-8.299989 20.04294-8.299989z" fill="#0097b0"/><path d="m55.4098 37.02c-1.8058 5.7632-5.4044 10.7994-10.2716 14.3751-4.8672 3.5758-10.7488 5.5043-16.7884 5.5049-2.9427.0053-5.8681-.4503-8.67-1.35l-12.58996-12.71c0-2.71 4.14996-5.08 10.34996-6.38v-2.68l-3.06-3.13c-.2671-.3358-.4619-.7233-.5721-1.1381-.1101-.4147-.1332-.8478-.0679-1.2719.0691-.3483.062-.7073-.0209-1.0526-.0829-.3452-.2395-.6684-.4591-.9474-.0737-.0688-.1274-.1562-.1556-.253s-.0297-.1994-.0044-.297c.0236-.098.0733-.1879.1437-.26.0704-.0722.1589-.124.2563-.15.6302-.2302 1.3125-.2782 1.9686-.1385.6562.1397 1.2598.4615 1.7414.9285l3.38 3.33c.1499-.0096.3002-.0096.45 0 .5324.0111 1.0593.109 1.56.29.0705.0227.1353.0602.19.11l4.59 4.65c0-.42 0-.88 0-1.36 0-1.53 0-3.22 0-4.5v-.31l-7.38-7.29c-1.49-1.46-1.46-3.49-1.44-5.45s.06-3.72-1.27-5c-.1139-.1106-.1969-.2491-.2408-.4017-.0439-.15263-.047-.31408-.0092-.4683.0383-.15434.1167-.2958.2274-.40997.1106-.11418.2496-.19702.4026-.24006 1.2542-.44456 2.597-.58033 3.9147-.39581s2.5716.68388 3.6553 1.45584l8.7 8.76c1.683-.2838 3.4115-.104 5 .52.1631.0526.3061.1538.41.29l16 17.35z" fill="#00879a"/><path d="m27.37 35.61c0-1.81 0-4.94-.06-7s0-4.09-.06-5.88c-3.58.13-5.86-.43-7.2-1.73-1.49-1.46-1.46-3.49-1.44-5.45s.06-3.72-1.27-5c-.114-.1106-.197-.2491-.2409-.4017-.0438-.15265-.047-.3141-.0091-.46832.0382-.15434.1166-.2958.2273-.40998.1107-.11417.2496-.19698.4027-.24002 1.2541-.44456 2.5969-.58033 3.9146-.39581s2.5716.68388 3.6554 1.45583c4.23 3.26 3.74 8.87 3.79 13.58.4954-1.67 1.5559-3.1159 3-4.09 1.79-1.09 4.1-1.16 6.85-.21.1433.0512.2715.1375.3728.2511.1013.1135.1726.2507.2072.3989.0346.1488.0307.3041-.0113.4511-.042.1469-.1207.2808-.2287.3889-.6375.8093-1.0729 1.7588-1.27 2.77-.78 2.54-1.75 5.69-8.85 4.18v.77c0 2.06 0 5.18.06 7h-1.8z" fill="#c5d01b"/><path d="m28.3501 14.67c.86 2.84.69 6.1.72 9 .4954-1.67 1.5559-3.1158 3-4.09 1.79-1.09 4.1-1.16 6.85-.21.1433.0512.2715.1376.3728.2511.1014.1136.1726.2507.2072.3989.0346.1489.0307.3041-.0112.4511-.042.147-.1208.2808-.2288.3889-.6339.8103-1.0658 1.7598-1.26 2.77-.78 2.54-1.75 5.69-8.85 4.18v.77c0 2.06 0 5.18.06 7h-.82v-20.91z" fill="#aeb527"/><path d="m42.9 32.3901c-.4963.0559-.9987.0122-1.4778-.1286s-.9252-.3759-1.3122-.6915c-.2651-.337-.4586-.7245-.5687-1.1389-.11-.4144-.1343-.8469-.0713-1.2711.0717-.3474.0669-.7064-.0143-1.0518-.0812-.3455-.2367-.669-.4557-.9482-.0738-.0687-.1275-.1561-.1557-.2529-.0282-.0969-.0297-.1995-.0043-.297.0235-.0981.0732-.1879.1436-.2601.0704-.0721.159-.1239.2564-.1499.6303-.2291 1.3123-.2765 1.9682-.1368s1.2594.4608 1.7418.9267c1.27 1.29 1.32 3 1.33 4.72.2477-.442.6115-.808 1.0521-1.0583.4406-.2502.9413-.3753 1.4479-.3617.529.0113 1.0526.1093 1.55.29.0927.0308.1762.0846.2426.1562.0664.0717.1137.159.1374.2538.0204.0962.0165.1961-.0115.2904-.0279.0943-.079.1801-.1485.2496-.2554.3144-.4335.6843-.52 1.0801-.0706.603-.3708 1.1555-.8382 1.5429-.4675.3874-1.0662.5797-1.6718.537-.4064-.0081-.8112-.0516-1.21-.13v3.91c-.37-.12-.76-.23-1.15-.34v-5.78z" fill="#aeb527"/><path d="m17.1499 31.47c-.4962.0565-.9987.0131-1.4779-.1277s-.9253-.3762-1.3121-.6923c-.2671-.3358-.4619-.7233-.5721-1.138-.1101-.4148-.1332-.8479-.0679-1.272.0691-.3483.062-.7073-.0209-1.0526-.0829-.3452-.2395-.6684-.4591-.9474-.0737-.0688-.1274-.1562-.1556-.253s-.0297-.1994-.0044-.297c.0236-.098.0733-.1878.1437-.26s.1589-.124.2563-.15c.6302-.2302 1.3125-.2782 1.9686-.1385.6562.1397 1.2598.4615 1.7414.9285 1.34 1.36 1.33 3 1.35 4.7.2479-.436.6096-.7966 1.0463-1.0431.4368-.2466.9323-.3699 1.4337-.3569.5324.0111 1.0593.1091 1.56.29.0914.0314.1733.0855.238.1572s.1102.1587.132.2528c.0205.0962.0166.196-.0114.2903-.0279.0943-.079.1802-.1486.2497-.2518.3154-.4264.6852-.51 1.08-.0729.603-.3755 1.1547-.8449 1.5403s-1.0693.5753-1.6751.5297c-.3994-.0052-.7976-.0453-1.19-.12v2.78l-1.15.22v-5.18z" fill="#c5d01b"/><path d="m49.6098 42.84h-42.51996c0-4.1 9.51996-7.43 21.25996-7.43s21.26 3.33 21.26 7.43z" fill="#005572"/><path d="m49.6101 42.84h-21.26v-7.43c11.74 0 21.26 3.33 21.26 7.43z" fill="#274351"/></g></svg>