<svg fill="none" height="57" viewBox="0 0 57 57" width="57" xmlns="http://www.w3.org/2000/svg"><g clip-rule="evenodd" fill-rule="evenodd"><path d="m28.32.00000706c3.7247-.00262763 7.4133.72872294 10.8552 2.15226294 3.4419 1.42355 6.5696 3.51138 9.2042 6.14418 2.6347 2.63285 4.7247 5.75895 6.1507 9.19985s2.1599 7.129 2.1599 10.8537c0 3.7225-.7334 7.4085-2.1582 10.8476-1.4248 3.439-3.5133 6.5636-6.1459 9.1954-2.6327 2.6317-5.7581 4.719-9.1976 6.1426-3.4395 1.4237-7.1258 2.1557-10.8483 2.1544-7.5162 0-14.7246-2.9858-20.0394-8.3006-5.31478-5.3148-8.30059824-12.5232-8.30059824-20.0394-.00131351-3.7225.73075824-7.4088 2.15438824-10.8483s3.51093-6.5649 6.14267-9.19757 5.75634-4.72108 9.19534-6.14592c3.4391-1.424843 7.1251-2.15820318 10.8476-2.15820294z" fill="#77ab49"/><path d="m53.0199 42.23c-2.0215 3.6075-4.807 6.7297-8.1615 9.148-3.3545 2.4182-7.197 4.0742-11.2585 4.852l-23.99998-23.92c-.55352-.5727-.87197-1.3323-.89234-2.1286-.02036-.7962.25881-1.5711.78232-2.1714l1.44-1.74c-1.91-2.92-1.78998-7.49.42-10.94.58-.9894 1.3659-1.8427 2.3045-2.5018.9386-.659 2.0079-1.1086 3.1355-1.3182.8032-.1185 1.6226-.057 2.3991.1799s1.4907.6434 2.0909 1.1901l2.53 2.47.25.22 9.33 9.14 3.73 3.92c.5081.068.974.3187 1.3108.7051.3367.3865.5213.8823.5192 1.3949v1c.1114-.0302.2287-.0302.34 0 2.0581.1911 4.0053 1.0196 5.57 2.37l8.1 8.23z" fill="#528f35"/><path d="m47.7698 45.34c.1971-.0052.3843-.0879.521-.2302.1366-.1422.2117-.3326.209-.5298 0-2.91-.13-11.78-9.16-12.91-.0966-.0126-.1946-.0061-.2887.0193-.094.0253-.182.069-.2591.1284-.0771.0595-.1418.1336-.1902.2181-.0484.0844-.0797.1776-.092.2742-.0126.0979-.0058.1972.02.2925.0259.0952.0703.1844.1307.2624s.1355.1434.2212.1923.1802.0805.2781.0928c5.35.67 7.77 4.2 7.85 11.45.0026.1972.0828.3854.2232.5239.1403.1385.3296.2161.5268.2161zm-2.61 0c.1972 0 .3864-.0776.5268-.2161s.2206-.3267.2232-.5239c0-4.45-.7-9.15-6.51-10.24-.1949-.0351-.3957.0083-.5586.1207-.163.1124-.2749.2847-.3114.4793-.0353.1934.0067.3929.1171.5557.1103.1627.2801.2756.4729.3143 4.46.83 5.34 4.1 5.29 8.75-.0001.1982.0772.3885.2155.5305.1382.1419.3264.2243.5245.2295zm-2.84 0c.1904-.0023.3729-.0769.5103-.2088.1374-.1318.2195-.311.2297-.5012.15-2.84 0-6-3.55-7.22-.0918-.0347-.1896-.0505-.2877-.0466-.098.004-.1943.0277-.283.0697-.0886.042-.1679.1015-.2331.1748-.0652.0734-.1149.1591-.1462.2521-.0398.0949-.0596.1969-.0583.2997.0014.1028.0238.2043.066.2981s.1033.1779.1794.2471c.076.0692.1655.122.2629.1551 2.36.83 2.72 2.66 2.56 5.73-.0054.0985.0087.1971.0415.2902s.0836.1788.1495.2521c.066.0734.1458.1331.2348.1756.0891.0425.1856.067.2842.0721z" fill="#a7d9e5"/><path d="m12.45 24.45c-.5272-1.297-.7316-2.7026-.5957-4.0961.1358-1.3934.6079-2.7331 1.3757-3.9039.4081-.7255.9677-1.3547 1.6406-1.8447.673-.4901 1.4435-.8295 2.2593-.9953.4928-.0737.9959-.0356 1.4719.1115.4761.1471.9129.3995 1.2781.7385l.5701.54c-.29.1656-.5475.3825-.7601.64l-7.2399 8.79zm11.41-9.13-2.53-2.47c-.6002-.5467-1.3144-.9532-2.0909-1.1901s-1.596-.2984-2.3992-.1799c-1.1275.2096-2.1969.6592-3.1355 1.3182-.9386.6591-1.7245 1.5124-2.3045 2.5018-2.20996 3.45-2.32995 8-.4199 10.94l-1.44005 1.74c-.52351.6003-.80269 1.3752-.78232 2.1714.02037.7963.33879 1.5559.89231 2.1286l7.15996 7c.5918.5278 1.3571.8195 2.15.8195.793 0 1.5583-.2917 2.1501-.8195l1.37-1.18 11.28-.06v.45c0 .75.63 1.3 2.16 2.5l.4299.34c.2578.2249.588.3492.93.35.2106-.0045.4182-.051.6105-.1369.1924-.0858.3656-.2093.5095-.3631.4334-.4369.6807-1.0247.69-1.64l-.09-8.87c.0021-.5126-.1824-1.0084-.5192-1.3949-.3368-.3864-.8027-.6371-1.3107-.7051-.3489.0001-.6847.1323-.94.37l-.4301.35c-1.54 1.25-2.12 1.8-2.11 2.54v.58h-4.4599l4.1499-3.32c.2975-.2447.5402-.5492.7125-.8938.1723-.3445.2702-.7214.2875-1.1062.0219-.4491-.0514-.8978-.2152-1.3166-.1637-.4187-.4141-.7982-.7348-1.1134l-9.33-9.14-.25-.22z" fill="#005572"/><path d="m13.1499 35.7 3.66 3.59c.5917.5278 1.357.8195 2.15.8195.7929 0 1.5582-.2917 2.15-.8195l1.37-1.18 11.28-.06v.45c0 .75.63 1.3 2.16 2.5l.43.34c.2577.2249.5879.3492.93.35.2106-.0045.4181-.051.6105-.1369.1923-.0858.3655-.2093.5095-.3631.4333-.4369.6806-1.0247.69-1.64l-.09-8.87c.0021-.5126-.1825-1.0084-.5192-1.3949-.3368-.3864-.8027-.6371-1.3108-.7051-.3488.0001-.6847.1323-.94.37l-.43.35c-1.54 1.25-2.12 1.8-2.11 2.54v.58h-4.46l4.15-3.32c.2974-.2447.5402-.5492.7124-.8938.1723-.3445.2703-.7214.2876-1.1062.0218-.4491-.0515-.8978-.2152-1.3166-.1637-.4187-.4142-.7982-.7348-1.1134l-4.68-4.59-15.61 15.61z" fill="#274351"/><path d="m21.7899 26.16c-.3543-.1881-.7687-.2285-1.1527-.1124-.384.1162-.7066.3794-.8973.7324-.1727.3493-.2047.7516-.0893 1.1238s.3693.6858.7093.8762c.3549.1855.7683.2244 1.1516.1085s.7058-.3775.8984-.7285c.1727-.3493.2047-.7516.0893-1.1238s-.3693-.6858-.7093-.8762zm1.13-2.06c-.3692-.1961-.8008-.2388-1.2013-.1191-.4005.1198-.7377.3925-.9387.7591-.0393.0705-.0727.144-.1.22-.0452-.0759-.0988-.1463-.16-.21-.2912-.3023-.69-.4772-1.1097-.4866-.4196-.0093-.8259.1476-1.1303.4366-.2955.2978-.4614.7004-.4614 1.12s.1659.8222.4614 1.12c.06 0 .11.11.17.15l-.24.1c-.1872.0899-.3549.2157-.4934.3704-.1386.1547-.2453.3352-.314.5312s-.0981.4036-.0866.6109c.0116.2074.0639.4104.154.5975.0897.1873.2157.3549.3706.4932.155.1382.3358.2444.532.3123.1963.0679.404.0961.6113.0832.2072-.013.4099-.0669.5961-.1587l.2-.11c-.0052.0866-.0052.1734 0 .26.0571.4177.2778.7956.6135 1.0506.3356.255.7588.3663 1.1765.3094.4151-.0571.7904-.2767 1.0436-.6105.2531-.3338.3634-.7544.3064-1.1695-.0108-.0778-.0275-.1547-.05-.23l.26.07c.4124.0727.8368-.0213 1.1799-.2613.3432-.24.577-.6064.6501-1.0187.0375-.2036.0343-.4126-.0093-.615-.0437-.2024-.1269-.3941-.2449-.5642-.1181-.1701-.2686-.3152-.4429-.4269s-.369-.1878-.5729-.2239h-.23c.0524-.0695.0993-.1431.14-.22.0998-.1823.1624-.3825.1842-.5891s.0023-.4155-.0572-.6146c-.0595-.199-.158-.3843-.2896-.545-.1317-.1608-.2939-.2937-.4774-.3913z" fill="#fefefe"/><path d="m18.6899 30.23c.2985.0397.602-.0127.87-.15l.2-.11c-.0051.0866-.0051.1734 0 .26.0572.4177.2778.7956.6135 1.0506.3356.255.7588.3663 1.1765.3094.4151-.0571.7904-.2767 1.0436-.6105s.3634-.7545.3064-1.1695c-.0108-.0778-.0275-.1547-.05-.23l.2601.07c.4123.0727.8367-.0213 1.1798-.2613.3432-.24.577-.6064.6501-1.0187.0375-.2036.0343-.4126-.0093-.615s-.1269-.3941-.2449-.5642-.2686-.3152-.4429-.4269-.369-.1878-.5728-.2239h-.2301c.0525-.0695.0993-.1431.1401-.22.1866-.3384.2401-.7342.1499-1.11l-1.44 1.44c.1807.23.2902.5077.3151.7991s-.036.5836-.1751.8409c-.1926.351-.5151.6126-.8984.7285-.3832.1159-.7967.0769-1.1516-.1085l-.2099-.14z" fill="#a7d9e5"/></g></svg>